<?xml version="1.0" standalone="no"?><!DOCTYPE svg PUBLIC "-//W3C//DTD SVG 1.1//EN" "http://www.w3.org/Graphics/SVG/1.1/DTD/svg11.dtd"><svg t="1511789634747" class="icon" style="" viewBox="0 0 1024 1024" version="1.1" xmlns="http://www.w3.org/2000/svg" p-id="2484" xmlns:xlink="http://www.w3.org/1999/xlink" width="128" height="128"><defs><style type="text/css"></style></defs><path d="M549.800375 763.426858l-68.501187 34.282574-62.680824-34.026734a19.699688 19.699688 0 1 0-18.804248 34.666334l71.699188 38.887695a19.571768 19.571768 0 0 0 18.228607 0.25584l77.647471-38.887695a19.699688 19.699688 0 1 0-17.589007-35.178014zM433.648969 535.985009a19.699688 19.699688 0 0 0 3.965522-38.951655l-233.326171-48.545659a19.699688 19.699688 0 1 0-7.995003 38.567895l233.326171 48.545659a21.490568 21.490568 0 0 0 4.029481 0.38376z" p-id="2485"></path><path d="M886.549906 248.484697a346.407495 346.407495 0 0 0-93.061836-132.717052C720.253841 50.97614 617.598001 15.286446 504.388757 15.286446c-111.162523 0-213.946284 37.288695-289.419113 104.958401C136.874453 190.217114 93.893317 288.395753 93.893317 396.552155c0 1.471081 0.19188 2.878201 0.44772 4.221362a16.629606 16.629606 0 0 0-0.19188 2.558401v406.657838c0 1.471081 0.19188 2.878201 0.44772 4.221362a19.699688 19.699688 0 0 0 8.442723 20.659088c2.174641 1.407121 33.323173 21.490568 87.113554 43.876577l-0.06396 0.767521v55.389381a19.827608 19.827608 0 0 0 11.129045 17.780887c2.942161 1.407121 73.298189 34.858214 183.053591 51.80762 34.858214 5.372642 76.17639 9.338164 122.035728 9.338164 87.241474 0 191.176515-14.391006 299.013117-60.825984a19.699688 19.699688 0 0 0 11.896564-18.100687v-56.604622l-0.06396-1.08732c29.229731-12.152405 58.139663-25.96777 86.729794-41.574017a19.635728 19.635728 0 0 0 9.785884-21.490568 18.164647 18.164647 0 0 0 0.44772-4.221362v-60.314303h2.622361c45.539538 0 82.636352-37.032854 82.636352-82.636352V468.507183c0.12792-175.570269-83.339913-212.475203-112.825484-220.022486z m-108.604122 673.371143c-151.009619 61.721424-292.808994 58.139663-386.190631 43.940537a725.562523 725.562523 0 0 1-162.266583-43.684697v-28.142411c31.916052 11.320924 69.204747 22.322049 111.098563 30.892692a810.501437 810.501437 0 0 0 254.62486 11.129045 819.96752 819.96752 0 0 0 182.733791-43.364897v29.229731z m96.899438-115.255965c-91.398876 48.353779-186.635353 78.670831-283.151031 90.119675a763.874578 763.874578 0 0 1-241.640974-10.169644c-112.121924-22.705809-191.048595-64.471705-216.568645-79.246471V403.331918a22.449969 22.449969 0 0 0-0.44772-4.221362 11.193004 11.193004 0 0 0 0.25584-2.558401c0-96.835478 38.312055-184.588632 107.964522-247.013617C309.502561 88.328795 402.948157 54.621861 504.388757 54.621861c103.61524 0 196.996877 32.171893 263.003623 90.567396 66.582386 58.907183 103.55128 141.863335 107.644722 240.681574H576.023985c-45.539538 0-82.636352 37.032854-82.636352 82.636352v198.531918c0 45.539538 37.032854 82.636352 82.636352 82.636352h298.821237v56.924422z m85.258713-139.560774a43.236977 43.236977 0 0 1-43.236977 43.236976H575.960025a43.236977 43.236977 0 0 1-43.236977-43.236976V468.507183c0-23.793129 19.379888-43.236977 43.236977-43.236977h316.857964a19.571768 19.571768 0 0 0 15.222486-7.227483 19.827608 19.827608 0 0 0 6.715802-14.838725 442.347533 442.347533 0 0 0-12.088444-103.871081c25.32817 18.868207 57.372142 63.576265 57.372142 169.110306v198.595878z" p-id="2486"></path><path d="M506.371518 1023.29644c-41.254216 0-82.764272-3.198001-123.442848-9.466084-110.650843-17.077327-182.733791-51.16802-185.739913-52.639101a29.421611 29.421611 0 0 1-16.565646-26.28757v-49.888819c-51.80762-22.066209-81.485072-41.382136-82.700313-42.213617a29.037851 29.037851 0 0 1-12.855965-28.590131 24.304809 24.304809 0 0 1-0.38376-4.285322V403.331918l0.12792-2.174641a22.449969 22.449969 0 0 1-0.44772-4.605122c0-110.842723 44.132417-211.515803 124.274328-283.406871C285.901312 43.876577 390.923673 5.756402 504.388757 5.756402c115.575765 0 220.470206 36.521174 295.431355 102.84772a354.978139 354.978139 0 0 1 93.765397 131.949532c32.491693 10.041724 115.511805 52.958901 115.511805 227.953529v198.467958c0 48.481699-37.672455 88.328795-85.258713 91.846595v51.16802a30.317052 30.317052 0 0 1-0.3198 4.157402 29.421611 29.421611 0 0 1-14.838726 29.869332c-26.54341 14.454966-53.982261 27.758651-81.740912 39.527295v51.42386a29.229731 29.229731 0 0 1-17.652967 26.799251c-95.108557 40.806496-196.996877 61.529544-302.914678 61.529544zM504.324797 24.68857c-108.859963 0-209.341162 36.457214-283.023111 102.59188C145.253217 195.525796 103.3594 291.146034 103.3594 396.552155l0.383761 5.564522-0.063961 407.873079 0.447721 2.110681-0.19188 4.221362a10.233604 10.233604 0 0 0 4.349281 10.681324c1.2792 0.83148 31.724172 20.723048 85.514554 43.045097l5.884322 2.430481-0.06396 62.488944c0 3.901562 2.302561 7.483323 5.820362 9.210244 2.878201 1.407121 72.466708 34.346533 180.367271 50.97614a793.10431 793.10431 0 0 0 120.628607 9.274203 742.57589 742.57589 0 0 0 295.303435-60.058463 10.233604 10.233604 0 0 0 6.140163-9.402124v-62.936664l5.884322-3.453842a901.836352 901.836352 0 0 0 85.770393-41.126296 10.425484 10.425484 0 0 0 5.116802-11.193004l-0.44772-1.790881 0.38376-1.854841c0.12792-0.83148 0.25584-1.662961 0.25584-2.494441v-69.844347h12.152405c40.294816 0 73.106309-32.811493 73.106309-73.170268V468.507183c0-170.581387-81.037352-204.54416-105.853842-210.876202l-4.669081-1.215241-1.790881-4.477202a336.877452 336.877452 0 0 0-90.503435-129.13529C715.71268 59.546783 615.29544 24.68857 504.324797 24.68857z m2.046721 959.208494c-38.759775 0-77.83935-2.942161-116.023486-8.762523a740.912929 740.912929 0 0 1-164.441224-44.324297l-5.884322-2.430481v-47.842099l12.664085 4.477202c35.561774 12.600125 72.594628 22.897689 109.883323 30.508932 82.956152 16.949407 167.767146 20.723048 251.554778 11.001124 60.506184-7.035603 121.204247-21.490568 180.623111-42.917177l12.728045-4.541162v49.1213l-5.948283 2.430481a723.899563 723.899563 0 0 1-275.156027 53.2787z m-267.352905-68.245346c25.20025 9.977764 80.909432 29.549532 154.143661 40.742536 37.288695 5.692442 75.408869 8.570643 113.209244 8.570643 91.398876 0 179.47183-16.693567 262.044222-49.505059v-9.530044a810.693317 810.693317 0 0 1-429.747408 28.142411 842.481449 842.481449 0 0 1-99.713679-26.863211v8.442724z m263.963023-4.285322c-51.55178 0-103.61524-5.244722-154.7193-15.542286-112.121924-22.641849-190.856715-63.704185-219.446846-80.333791l-4.733042-2.750282V403.331918a17.333167 17.333167 0 0 0-0.25584-2.558401l-0.25584-1.215241 0.12792-1.21524c0.06396-101.37664 39.527295-191.560275 111.162524-255.8401C304.897439 79.758151 400.517676 45.219738 504.324797 45.219738c105.917801 0 201.538039 33.003373 269.271705 92.933916 68.309307 60.442224 106.685322 146.020737 110.778763 247.333417l0.447721 9.849843H576.023985c-40.294816 0-73.106309 32.811493-73.106309 73.170269v198.467958c0 40.294816 32.811493 73.170269 73.106309 73.170268h308.28732V812.292317l-5.052842 2.686321c-92.550156 48.929419-188.937914 79.566271-286.412991 91.143036-29.677452 3.517801-59.866583 5.244722-89.863836 5.244722z m-359.90306-109.563523c31.148532 17.525047 105.342161 54.493941 208.893441 75.47283 78.990631 15.990006 159.900062 19.315928 238.698814 10.041724 93.445597-11.065084 185.803873-40.166896 274.708307-86.473954v-41.765896H576.023985c-50.78426 0-92.102436-41.318176-92.102436-92.102436V468.507183c0-50.78426 41.318176-92.102436 92.102436-92.102436h288.971393c-6.012242-91.782636-41.765896-169.110306-103.935041-224.115928-64.279825-56.860462-155.422861-88.200874-256.67158-88.200874-99.074079 0-190.281074 32.811493-256.73554 92.486196-67.733666 60.634104-104.894441 145.892817-104.894441 239.978014a20.659088 20.659088 0 0 1-0.12792 2.046721 28.142411 28.142411 0 0 1 0.44772 4.669082v398.534915z m773.852342-82.124672h-340.906933a52.767021 52.767021 0 0 1-52.703061-52.70306V468.507183c0-29.037851 23.665209-52.703061 52.703061-52.703061h316.794004a9.977764 9.977764 0 0 0 7.867083-3.709681c3.325921-3.134041 4.541162-5.884322 4.541162-8.826483a442.475453 442.475453 0 0 0-11.768645-101.63248l-6.140162-25.52005 21.042848 15.734166c27.950531 20.850968 61.209744 68.437227 61.209744 176.721549v198.467958a52.639101 52.639101 0 0 1-52.639101 52.6391z m-340.906933-284.941911a33.770893 33.770893 0 0 0-33.706933 33.770893v198.467958c0 18.612367 15.094566 33.770893 33.706933 33.770893h340.842973a33.770893 33.770893 0 0 0 33.706933-33.770893V468.507183c0-71.699188-14.838726-114.104685-32.235852-139.049094 3.837601 23.729169 5.820362 48.481699 5.948282 73.745909a29.549532 29.549532 0 0 1-9.913804 22.002248 27.886571 27.886571 0 0 1-21.490568 9.530044H576.023985z" p-id="2487"></path><path d="M686.994628 446.440974c-62.680824 0-113.656964 50.97614-113.656964 113.656965s50.97614 113.656964 113.656964 113.656964 113.656964-50.97614 113.656965-113.656964-50.97614-113.656964-113.656965-113.656965z m0 187.850594c-40.934416 0-74.257589-33.323173-74.257589-74.257589s33.323173-74.257589 74.257589-74.257589 74.257589 33.323173 74.257589 74.257589-33.323173 74.257589-74.257589 74.257589zM864.675578 558.371018a55.901062 55.901062 0 0 0-55.837102 55.837102c0 30.764772 25.07233 55.837102 55.837102 55.837102a55.901062 55.901062 0 0 0 55.837102-55.837102 55.901062 55.901062 0 0 0-55.837102-55.837102z m0 72.274828a16.437726 16.437726 0 1 1 0-32.875452 16.437726 16.437726 0 0 1 0 32.875452z" p-id="2488"></path></svg>